{
  "source": "C:\\Users\\Peter\\Desktop\\stuff\\MIUN\\quantitative_research\\video_compression\\videos\\BVI-HD\\BVI-HD_CDVL_videos\\ORIG\\CloudsZoom_1920x1080_60fps.mp4",
  "output": "C:\\Users\\Peter\\Desktop\\stuff\\MIUN\\quantitative_research\\video_compression\\compressed_videos\\BVI-HD\\av1\\2\\CloudsZoom_1920x1080_60fps_av1.mkv",
  "codec": "av1",
  "ok": "Input #0, mov,mp4,m4a,3gp,3g2,mj2, from 'C:\\Users\\Peter\\Desktop\\stuff\\MIUN\\quantitative_research\\video_compression\\videos\\BVI-HD\\BVI-HD_CDVL_videos\\ORIG\\CloudsZoom_1920x1080_60fps.mp4':\n  Metadata:\n    major_brand     : isom\n    minor_version   : 512\n    compatible_brands: isomiso2avc1mp41\n    encoder         : Lavf54.28.101\n  Duration: 00:00:05.00, start: 0.000000, bitrate: 32589 kb/s\n  Stream #0:0[0x1](und): Video: h264 (High 4:4:4 Predictive) (avc1 / 0x31637661), yuv420p(progressive), 1920x1080, 32586 kb/s, 60 fps, 60 tbr, 60 tbn (default)\n    Metadata:\n      handler_name    : VideoHandler\n      vendor_id       : [0][0][0][0]\n[out#0/matroska @ 0000025b9cf790c0] Codec AVOption b:a (set bitrate (in bits/s)) has not been used for any stream. The most likely reason is either wrong type (e.g. a video option with no video streams) or that it is a private option of some decoder which was not actually used for any stream.\nStream mapping:\n  Stream #0:0 -> #0:0 (h264 (native) -> av1 (libsvtav1))\nPress [q] to stop, [?] for help\nSvt[info]: -------------------------------------------\nSvt[info]: SVT [version]:\tSVT-AV1 Encoder Lib v3.1.0-19-g6ecfe8ec\nSvt[info]: SVT [build]  :\tGCC 15.2.0\t 64 bit\nSvt[info]: LIB Build date: Aug 17 2025 11:37:13\nSvt[info]: -------------------------------------------\nSvt[info]: Level of Parallelism: 5\nSvt[info]: Number of PPCS 93\nSvt[info]: [asm level on system : up to avx2]\nSvt[info]: [asm level selected : up to avx2]\nSvt[info]: -------------------------------------------\nSvt[info]: SVT [config]: main profile\ttier (auto)\tlevel (auto)\nSvt[info]: SVT [config]: width / height / fps numerator / fps denominator \t\t: 1920 / 1080 / 60 / 1\nSvt[info]: SVT [config]: bit-depth / color format \t\t\t\t\t: 8 / YUV420\nSvt[info]: SVT [config]: preset / tune / pred struct \t\t\t\t\t: 4 / PSNR / random access\nSvt[info]: SVT [config]: gop size / mini-gop size / key-frame type \t\t\t: 321 / 16 / key frame\nSvt[info]: SVT [config]: BRC mode / target bitrate (kbps)\t\t\t\t: VBR / 2000 \nSvt[info]: SVT [config]: AQ mode / Variance Boost \t\t\t\t\t: 2 / 0\nSvt[info]: SVT [config]: sharpness / luminance-based QP bias \t\t\t\t: 0 / 0\nSvt[info]: SVT [config]: QP scale compress strength \t\t\t\t\t: 0\nSvt[info]: -------------------------------------------\nOutput #0, matroska, to 'C:\\Users\\Peter\\Desktop\\stuff\\MIUN\\quantitative_research\\video_compression\\compressed_videos\\BVI-HD\\av1\\2\\CloudsZoom_1920x1080_60fps_av1.mkv':\n  Metadata:\n    major_brand     : isom\n    minor_version   : 512\n    compatible_brands: isomiso2avc1mp41\n    encoder         : Lavf62.3.100\n  Stream #0:0(und): Video: av1 (AV01 / 0x31305641), yuv420p(tv, progressive), 1920x1080, q=2-31, 2000 kb/s, 60 fps, 1k tbn (default)\n    Metadata:\n      encoder         : Lavc62.11.100 libsvtav1\n      handler_name    : VideoHandler\n      vendor_id       : [0][0][0][0]\n    Side data:\n      cpb: bitrate max/min/avg: 0/0/2000000 buffer size: 2000000 vbv_delay: N/A\nframe=    0 fps=0.0 q=0.0 size=       0KiB time=N/A bitrate=N/A speed=N/A elapsed=0:00:00.53    \nframe=    0 fps=0.0 q=0.0 size=       0KiB time=N/A bitrate=N/A speed=N/A elapsed=0:00:01.08    \nframe=    0 fps=0.0 q=0.0 size=       0KiB time=N/A bitrate=N/A speed=N/A elapsed=0:00:01.59    \nframe=    0 fps=0.0 q=0.0 size=       0KiB time=N/A bitrate=N/A speed=N/A elapsed=0:00:02.10    \nframe=    1 fps=0.4 q=4.0 size=       1KiB time=00:00:00.00 bitrate=N/A speed=   0x elapsed=0:00:02.63    \nframe=   13 fps=4.1 q=24.0 size=       1KiB time=00:00:00.20 bitrate=  28.5kbits/s speed=0.0634x elapsed=0:00:03.15    \nframe=   19 fps=5.2 q=21.0 size=       1KiB time=00:00:00.28 bitrate=  20.1kbits/s speed=0.0771x elapsed=0:00:03.67    \nframe=   29 fps=6.9 q=18.0 size=       1KiB time=00:00:00.46 bitrate=  12.2kbits/s speed=0.111x elapsed=0:00:04.20    \nframe=   30 fps=6.3 q=16.0 size=       1KiB time=00:00:00.48 bitrate=  11.8kbits/s speed=0.102x elapsed=0:00:04.74    \nframe=   35 fps=6.7 q=12.0 size=       1KiB time=00:00:00.56 bitrate=  10.1kbits/s speed=0.108x elapsed=0:00:05.25    \nframe=   39 fps=6.8 q=11.0 size=       1KiB time=00:00:00.63 bitrate=   9.0kbits/s speed=0.11x elapsed=0:00:05.76    \nframe=   43 fps=6.8 q=9.0 size=       1KiB time=00:00:00.70 bitrate=   8.1kbits/s speed=0.111x elapsed=0:00:06.28    \nframe=   47 fps=6.9 q=10.0 size=       1KiB time=00:00:00.76 bitrate=   7.4kbits/s speed=0.113x elapsed=0:00:06.80    \nframe=   51 fps=7.0 q=11.0 size=       1KiB time=00:00:00.83 bitrate=   6.8kbits/s speed=0.114x elapsed=0:00:07.32    \nframe=   56 fps=7.1 q=12.0 size=       1KiB time=00:00:00.91 bitrate=   6.2kbits/s speed=0.117x elapsed=0:00:07.84    \nframe=   61 fps=7.3 q=15.0 size=       1KiB time=00:00:01.00 bitrate=   5.7kbits/s speed=0.119x elapsed=0:00:08.40    \nframe=   67 fps=7.5 q=10.0 size=       1KiB time=00:00:01.10 bitrate=   5.2kbits/s speed=0.123x elapsed=0:00:08.94    \nframe=   71 fps=7.5 q=10.0 size=       1KiB time=00:00:01.16 bitrate=   4.9kbits/s speed=0.123x elapsed=0:00:09.47    \nframe=   75 fps=7.5 q=11.0 size=       1KiB time=00:00:01.23 bitrate=   4.6kbits/s speed=0.123x elapsed=0:00:09.99    \nframe=   82 fps=7.8 q=11.0 size=       1KiB time=00:00:01.35 bitrate=   4.2kbits/s speed=0.129x elapsed=0:00:10.50    \nframe=   86 fps=7.8 q=9.0 size=       1KiB time=00:00:01.41 bitrate=   4.0kbits/s speed=0.128x elapsed=0:00:11.05    \nframe=   90 fps=7.8 q=12.0 size=       1KiB time=00:00:01.48 bitrate=   3.8kbits/s speed=0.128x elapsed=0:00:11.59    \nframe=   96 fps=7.9 q=11.0 size=       1KiB time=00:00:01.58 bitrate=   3.6kbits/s speed=0.13x elapsed=0:00:12.13    \nframe=  101 fps=8.0 q=10.0 size=       1KiB time=00:00:01.66 bitrate=   3.4kbits/s speed=0.132x elapsed=0:00:12.67    \nframe=  105 fps=8.0 q=7.0 size=       1KiB time=00:00:01.73 bitrate=   3.3kbits/s speed=0.131x elapsed=0:00:13.20    \nframe=  110 fps=8.0 q=10.0 size=       1KiB time=00:00:01.81 bitrate=   3.1kbits/s speed=0.132x elapsed=0:00:13.75    \nframe=  116 fps=8.1 q=9.0 size=       1KiB time=00:00:01.91 bitrate=   3.0kbits/s speed=0.134x elapsed=0:00:14.30    \nframe=  120 fps=8.1 q=10.0 size=       1KiB time=00:00:01.98 bitrate=   2.9kbits/s speed=0.134x elapsed=0:00:14.82    \nframe=  126 fps=8.2 q=10.0 size=       1KiB time=00:00:02.06 bitrate=   2.8kbits/s speed=0.135x elapsed=0:00:15.36    \nframe=  131 fps=8.2 q=12.0 size=       1KiB time=00:00:02.16 bitrate=   2.6kbits/s speed=0.136x elapsed=0:00:15.90    \nframe=  135 fps=8.2 q=11.0 size=       1KiB time=00:00:02.23 bitrate=   2.6kbits/s speed=0.136x elapsed=0:00:16.43    \nframe=  141 fps=8.3 q=11.0 size=       1KiB time=00:00:02.31 bitrate=   2.5kbits/s speed=0.137x elapsed=0:00:16.96    \nframe=  146 fps=8.3 q=12.0 size=       1KiB time=00:00:02.41 bitrate=   2.4kbits/s speed=0.138x elapsed=0:00:17.50    \nframe=  150 fps=8.3 q=12.0 size=       1KiB time=00:00:02.48 bitrate=   2.3kbits/s speed=0.138x elapsed=0:00:18.03    \nframe=  155 fps=8.4 q=12.0 size=       1KiB time=00:00:02.56 bitrate=   2.2kbits/s speed=0.138x elapsed=0:00:18.55    \nframe=  159 fps=8.3 q=12.0 size=       1KiB time=00:00:02.63 bitrate=   2.2kbits/s speed=0.138x elapsed=0:00:19.09    \nframe=  164 fps=8.4 q=14.0 size=       1KiB time=00:00:02.71 bitrate=   2.1kbits/s speed=0.139x elapsed=0:00:19.61    \nframe=  170 fps=8.4 q=14.0 size=       1KiB time=00:00:02.81 bitrate=   2.0kbits/s speed=0.14x elapsed=0:00:20.15    \nframe=  177 fps=8.6 q=1.0 size=       1KiB time=00:00:02.93 bitrate=   1.9kbits/s speed=0.142x elapsed=0:00:20.67    \nframe=  184 fps=8.7 q=15.0 size=       1KiB time=00:00:03.03 bitrate=   1.9kbits/s speed=0.143x elapsed=0:00:21.18    \nframe=  190 fps=8.7 q=15.0 size=       1KiB time=00:00:03.15 bitrate=   1.8kbits/s speed=0.145x elapsed=0:00:21.72    \nframe=  197 fps=8.9 q=12.0 size=       1KiB time=00:00:03.26 bitrate=   1.7kbits/s speed=0.147x elapsed=0:00:22.23    \nframe=  209 fps=9.2 q=2.0 size=       1KiB time=00:00:03.46 bitrate=   1.6kbits/s speed=0.152x elapsed=0:00:22.76    \nframe=  209 fps=9.0 q=2.0 size=       1KiB time=00:00:03.46 bitrate=   1.6kbits/s speed=0.149x elapsed=0:00:23.29    \nframe=  217 fps=9.1 q=9.0 size=       1KiB time=00:00:03.60 bitrate=   1.6kbits/s speed=0.151x elapsed=0:00:23.83    \nframe=  225 fps=9.2 q=2.0 size=       1KiB time=00:00:03.73 bitrate=   1.5kbits/s speed=0.153x elapsed=0:00:24.34    \nframe=  229 fps=9.2 q=12.0 size=       1KiB time=00:00:03.80 bitrate=   1.5kbits/s speed=0.153x elapsed=0:00:24.85    \nframe=  237 fps=9.3 q=12.0 size=       1KiB time=00:00:03.93 bitrate=   1.4kbits/s speed=0.155x elapsed=0:00:25.37    \nframe=  241 fps=9.3 q=2.0 size=       1KiB time=00:00:04.00 bitrate=   1.4kbits/s speed=0.154x elapsed=0:00:25.89    \nframe=  245 fps=9.3 q=12.0 size=       1KiB time=00:00:04.06 bitrate=   1.4kbits/s speed=0.154x elapsed=0:00:26.40    \nframe=  251 fps=9.3 q=14.0 size=       1KiB time=00:00:04.16 bitrate=   1.4kbits/s speed=0.155x elapsed=0:00:26.92    \nframe=  257 fps=9.4 q=1.0 size=       1KiB time=00:00:04.26 bitrate=   1.3kbits/s speed=0.155x elapsed=0:00:27.45    \nframe=  265 fps=9.5 q=9.0 size=       1KiB time=00:00:04.40 bitrate=   1.3kbits/s speed=0.157x elapsed=0:00:27.99    \nframe=  273 fps=9.6 q=2.0 size=       1KiB time=00:00:04.53 bitrate=   1.3kbits/s speed=0.159x elapsed=0:00:28.50    \nframe=  281 fps=9.7 q=9.0 size=       1KiB time=00:00:04.66 bitrate=   1.2kbits/s speed=0.161x elapsed=0:00:29.02    \n[out#0/matroska @ 0000025b9cf790c0] video:1003KiB audio:0KiB subtitle:0KiB other streams:0KiB global headers:0KiB muxing overhead: 0.205904%\nframe=  300 fps= 10 q=31.0 Lsize=    1005KiB time=00:00:04.98 bitrate=1652.4kbits/s speed=0.169x elapsed=0:00:29.44    \n",
  "seconds": 29.805760860443115,
  "probe_out": {}
}